
<svg version="1.0" xmlns="http://www.w3.org/2000/svg"
 width="230.000000pt" height="219.000000pt" viewBox="0 0 230.000000 219.000000"
 preserveAspectRatio="xMidYMid meet">

<g transform="translate(0.000000,219.000000) scale(0.100000,-0.100000)"
fill="#ffffff" stroke="none">
<path d="M610 2183 c-183 -16 -342 -98 -458 -236 -50 -61 -114 -189 -133 -267
-19 -77 -17 -231 4 -310 37 -140 77 -201 256 -382 170 -174 197 -192 221 -147
10 18 -4 36 -142 177 -85 86 -168 180 -186 209 -112 176 -114 414 -6 601 39
67 149 172 219 208 93 49 167 67 275 67 163 -1 290 -56 415 -182 33 -34 66
-61 74 -61 7 0 49 34 92 75 124 118 245 169 404 168 54 0 114 -7 150 -18 196
-56 360 -228 405 -425 33 -142 1 -325 -79 -443 -40 -61 -44 -92 -11 -102 28
-9 44 2 79 56 167 256 138 582 -73 805 -114 121 -230 181 -395 204 -183 25
-376 -37 -519 -165 l-52 -47 -57 51 c-122 109 -324 178 -483 164z"/>
<path d="M1570 1751 c-19 -10 -44 -31 -55 -48 l-21 -30 -34 26 c-26 20 -44 26
-86 26 -90 0 -87 3 -330 -429 -98 -174 -117 -195 -160 -174 -22 10 -33 29 -54
95 -29 92 -53 123 -116 153 -34 17 -58 20 -126 18 -80 -3 -83 -4 -86 -28 -1
-14 43 -189 98 -389 l100 -364 -50 -89 c-56 -99 -63 -140 -29 -194 73 -119
345 -284 519 -315 95 -17 126 -1 179 90 24 40 54 77 69 85 34 18 107 95 159
166 51 71 103 159 308 523 145 257 168 305 168 342 0 58 -29 105 -81 130 -35
16 -42 24 -36 40 17 51 15 110 -5 143 -22 35 -75 72 -103 72 -13 0 -18 8 -18
25 0 45 -37 103 -80 125 -49 25 -85 25 -130 1z m106 -87 c18 -17 24 -32 20
-47 -3 -12 -77 -150 -166 -307 -88 -156 -160 -289 -160 -295 0 -18 23 -35 46
-35 17 0 31 16 60 68 151 274 258 453 274 462 10 5 26 10 34 10 23 0 56 -37
56 -62 0 -12 -65 -139 -146 -281 -144 -256 -156 -286 -119 -301 35 -13 47 4
188 259 62 113 88 145 116 145 29 0 64 -33 64 -61 0 -15 -86 -177 -198 -375
-259 -457 -305 -525 -400 -589 -38 -25 -59 -49 -85 -98 -22 -42 -43 -68 -56
-71 -53 -14 -226 56 -363 144 -75 48 -161 134 -161 159 0 10 24 61 54 113 l53
95 -34 124 c-73 268 -153 558 -160 577 -8 20 55 14 98 -10 39 -22 47 -36 73
-128 17 -63 44 -96 94 -117 41 -17 94 -10 132 17 15 10 90 133 180 294 95 169
164 280 177 287 29 16 69 -1 84 -35 13 -27 9 -34 -150 -314 -50 -87 -91 -166
-91 -174 0 -19 20 -38 42 -38 22 0 33 17 203 320 167 299 186 320 241 264z"/>
</g>
</svg>
