<?xml version="1.0" standalone="no"?>
<!DOCTYPE svg PUBLIC "-//W3C//DTD SVG 20010904//EN"
 "http://www.w3.org/TR/2001/REC-SVG-20010904/DTD/svg10.dtd">
<svg version="1.0" xmlns="http://www.w3.org/2000/svg"
 width="291.000000pt" height="173.000000pt" viewBox="0 0 291.000000 173.000000"
 preserveAspectRatio="xMidYMid meet">

<g transform="translate(0.000000,173.000000) scale(0.100000,-0.100000)"
fill="#ffffff" stroke="none">
<path d="M2215 1614 c-115 -62 -214 -115 -218 -116 -11 -4 464 -908 476 -908
16 0 427 223 427 232 0 7 -467 899 -473 904 -1 0 -96 -50 -212 -112z m393
-710 c34 -23 27 -83 -10 -104 -25 -13 -31 -13 -55 0 -37 20 -43 70 -14 99 25
25 49 27 79 5z"/>
<path d="M461 1663 c-11 -21 -119 -225 -239 -453 l-219 -415 196 -102 c108
-56 201 -102 207 -103 10 0 490 899 482 904 -9 8 -396 206 -402 206 -3 0 -14
-17 -25 -37z m-113 -759 c46 -32 17 -114 -40 -114 -26 0 -58 36 -58 65 0 29
32 65 58 65 10 0 28 -7 40 -16z"/>
<path d="M1070 1515 l-135 -67 -162 -306 c-89 -169 -160 -308 -158 -310 5 -5
613 414 646 444 l25 24 61 -36 61 -36 -14 -51 c-18 -67 -18 -179 0 -220 17
-41 59 -80 82 -75 13 2 35 47 81 168 69 184 76 228 40 281 -32 47 -157 149
-243 199 -112 64 -125 63 -284 -15z"/>
<path d="M1417 1573 c-4 -3 16 -21 43 -40 75 -50 185 -158 205 -200 25 -53 15
-127 -38 -263 -24 -63 -52 -137 -62 -164 -10 -27 -26 -57 -36 -67 -47 -47
-144 -3 -185 84 -26 56 -32 164 -15 240 8 35 7 39 -15 49 -23 11 -40 2 -192
-102 -332 -225 -561 -391 -583 -422 -12 -17 -24 -51 -27 -78 -6 -64 18 -90 83
-90 72 0 138 29 332 148 100 62 188 112 196 112 21 0 30 -31 15 -46 -7 -7 -87
-58 -178 -114 -187 -115 -230 -153 -230 -204 0 -19 3 -42 6 -51 10 -26 62 -48
98 -41 18 4 120 60 227 126 106 66 199 120 205 120 18 0 34 -24 25 -38 -4 -8
-89 -64 -187 -125 -101 -63 -180 -119 -182 -129 -5 -28 26 -82 57 -101 35 -21
90 -22 135 -3 18 8 102 60 185 116 84 55 160 100 169 98 9 -2 18 -12 20 -24 2
-16 -27 -40 -153 -122 -85 -56 -155 -106 -155 -111 0 -5 12 -23 26 -40 22 -26
33 -31 71 -31 25 0 61 7 80 16 27 14 33 21 29 39 -8 32 12 92 43 127 22 25 37
32 78 35 l51 5 12 46 c18 73 76 121 137 113 7 -1 15 14 18 33 17 86 96 144
180 132 25 -4 47 -11 50 -17 10 -15 25 -10 25 8 0 30 49 82 90 94 54 16 106 0
157 -50 l40 -38 39 29 c21 16 40 33 42 37 2 7 -389 761 -403 779 -5 6 -246 72
-350 96 -133 31 -170 38 -178 29z"/>
<path d="M2074 628 c-24 -11 -44 -48 -44 -80 0 -17 65 -142 87 -168 2 -2 23 6
47 18 46 25 76 66 76 105 0 32 -37 86 -79 114 -37 25 -55 27 -87 11z"/>
<path d="M1845 541 c-37 -16 -60 -51 -59 -91 1 -30 15 -57 59 -120 l58 -82 50
5 c41 3 56 11 79 36 15 17 28 41 28 54 0 12 -23 57 -50 100 -61 94 -107 121
-165 98z"/>
<path d="M1643 353 c-26 -39 -21 -100 10 -154 41 -70 108 -90 161 -48 38 30
34 68 -15 142 -51 76 -64 87 -106 87 -24 0 -37 -7 -50 -27z"/>
<path d="M1477 207 c-24 -17 -35 -65 -26 -107 9 -41 68 -100 100 -100 32 0 79
53 79 90 0 87 -95 160 -153 117z"/>
</g>
</svg>
