<svg version="1.0" xmlns="http://www.w3.org/2000/svg"
 width="225.000000pt" height="225.000000pt" viewBox="0 0 225.000000 225.000000"
 preserveAspectRatio="xMidYMid meet">

<g transform="translate(0.000000,225.000000) scale(0.100000,-0.100000)"
fill="#ffffff" stroke="none">
<path d="M785 2164 c-149 -96 -323 -168 -466 -194 -75 -13 -103 -29 -124 -71
-14 -27 -16 -83 -13 -467 4 -410 5 -442 25 -514 102 -363 446 -711 843 -852
l76 -27 74 27 c400 143 741 489 843 852 20 72 21 104 25 514 3 384 1 440 -13
467 -21 42 -49 58 -124 71 -143 26 -290 86 -452 186 l-87 54 -269 0 -268 -1
-70 -45z m670 -60 c139 -90 337 -171 469 -190 23 -4 51 -13 64 -20 l22 -14 0
-418 c0 -450 -4 -488 -56 -624 -74 -195 -263 -420 -475 -565 -68 -47 -207
-119 -283 -148 l-70 -26 -60 22 c-331 119 -658 423 -770 717 -52 136 -56 174
-56 624 l0 418 23 14 c12 7 42 17 67 20 126 18 339 106 475 195 l60 39 260 1
260 1 70 -46z"/>
<path d="M798 2031 c-121 -73 -243 -125 -373 -159 -55 -14 -106 -30 -113 -36
-11 -8 -13 -87 -9 -420 4 -462 4 -460 82 -621 87 -182 250 -364 280 -315 3 6
-6 45 -22 88 -27 75 -28 83 -31 325 l-4 247 517 0 517 0 -4 -252 c-3 -251 -4
-254 -32 -321 -49 -119 -9 -133 84 -28 82 91 135 169 181 266 71 152 72 154
76 611 4 333 2 412 -9 421 -7 5 -47 18 -88 28 -137 32 -286 96 -423 181 l-71
44 -231 0 -230 0 -97 -59z m644 -61 c112 -66 267 -130 378 -157 l71 -17 -3
-396 c-4 -382 -4 -397 -27 -465 -13 -38 -35 -92 -48 -120 -32 -63 -112 -185
-122 -185 -4 0 -4 24 0 53 9 63 11 479 3 501 -5 12 -20 16 -60 16 l-54 0 0 98
c0 185 -34 299 -118 393 -212 238 -610 182 -742 -104 -35 -75 -50 -160 -50
-289 l0 -98 -54 0 c-40 0 -55 -4 -60 -16 -8 -22 -6 -438 3 -501 4 -29 4 -53 0
-53 -12 0 -96 132 -129 201 -65 140 -70 182 -70 594 l0 371 71 17 c110 27 264
91 374 156 l100 60 218 0 218 1 101 -60z m-252 -190 c130 -25 236 -107 293
-228 30 -64 32 -74 35 -210 l4 -143 -73 3 -74 3 -5 140 c-4 125 -8 145 -30
183 -27 48 -96 98 -147 108 -52 10 -154 -1 -191 -20 -44 -23 -81 -63 -103
-110 -15 -33 -19 -66 -19 -173 l0 -133 -76 0 -76 0 4 143 c3 135 5 145 35 209
54 115 165 204 283 227 63 12 80 12 140 1z m29 -215 c39 -20 78 -69 91 -113 5
-20 10 -85 10 -144 l0 -108 -195 0 -195 0 0 108 c0 157 18 206 95 253 38 24
152 26 194 4z"/>
<path d="M1042 1003 c-90 -44 -124 -181 -64 -262 17 -23 21 -46 24 -144 3
-115 3 -117 34 -148 23 -23 43 -32 75 -36 53 -5 86 11 116 56 20 30 23 46 23
138 0 91 3 108 21 133 61 82 28 220 -64 264 -44 20 -122 20 -165 -1z m151 -58
c60 -39 70 -126 22 -184 -23 -27 -25 -36 -25 -142 0 -126 -10 -149 -63 -149
-58 0 -67 20 -67 148 0 107 -2 116 -25 143 -35 42 -42 90 -18 135 35 69 114
90 176 49z"/>
</g>
</svg>
